<?xml version="1.0" standalone="no"?>
<!DOCTYPE svg PUBLIC "-//W3C//DTD SVG 20010904//EN"
 "http://www.w3.org/TR/2001/REC-SVG-20010904/DTD/svg10.dtd">
<svg version="1.0" xmlns="http://www.w3.org/2000/svg"
 width="212.500000pt" height="30.000000pt" viewBox="0 0 212.500000 30.000000"
 preserveAspectRatio="xMidYMid meet">
<metadata>
Created by potrace 1.12, written by Peter Selinger 2001-2015
</metadata>
<g transform="translate(-5.500000,37.000000) scale(0.100000,-0.100000)"
fill="#000000" stroke="none">
<path d="M132 353 c-52 -25 -77 -69 -77 -133 0 -66 26 -109 81 -135 45 -21
115 -16 152 12 34 26 37 39 12 53 -16 8 -25 7 -42 -5 -61 -42 -148 2 -148 75
0 75 81 114 151 73 27 -16 30 -16 46 -1 20 21 8 38 -41 62 -43 20 -92 20 -134
-1z"/>
<path d="M411 353 c-50 -26 -74 -64 -79 -125 -3 -44 0 -59 20 -87 47 -68 128
-89 198 -50 48 27 73 71 74 130 2 106 -120 181 -213 132z m133 -74 c35 -41 34
-83 -3 -120 -52 -51 -130 -32 -150 38 -17 58 27 112 91 113 28 0 42 -7 62 -31z"/>
<path d="M726 362 c-7 -12 -106 -277 -106 -285 0 -4 12 -7 28 -7 26 0 29 6 62
100 19 55 38 100 41 100 3 0 22 -44 41 -97 34 -95 36 -98 67 -101 18 -2 32 1
30 5 -2 5 -28 73 -58 151 -48 126 -56 142 -77 142 -12 0 -25 -4 -28 -8z"/>
<path d="M961 352 c-54 -27 -76 -64 -76 -130 0 -43 6 -65 22 -88 47 -66 145
-82 212 -35 36 26 38 36 11 51 -16 8 -26 7 -42 -5 -61 -42 -148 2 -148 75 0
75 81 114 151 73 27 -16 30 -16 46 -1 20 21 8 38 -41 62 -44 21 -93 20 -135
-2z"/>
<path d="M1170 220 l0 -150 30 0 30 0 0 60 0 61 58 -3 57 -3 3 -57 c3 -54 5
-58 27 -58 l25 0 0 150 0 150 -25 0 c-24 0 -25 -2 -25 -65 l0 -65 -60 0 -60 0
0 65 0 65 -30 0 -30 0 0 -150z"/>
<path d="M1688 358 l-28 -10 0 -139 0 -139 30 0 30 0 0 150 c0 83 -1 150 -2
149 -2 0 -15 -5 -30 -11z"/>
<path d="M1770 340 l0 -30 95 0 95 0 0 30 0 30 -95 0 -95 0 0 -30z"/>
<path d="M1990 340 l0 -30 95 0 95 0 0 30 0 30 -95 0 -95 0 0 -30z"/>
<path d="M1463 353 c-10 -3 -13 -42 -13 -144 l0 -139 95 0 95 0 0 30 0 30 -70
0 -70 0 0 115 c0 116 -2 123 -37 108z"/>
<path d="M1990 220 l0 -30 95 0 95 0 0 30 0 30 -95 0 -95 0 0 -30z"/>
<path d="M1770 155 c0 -84 0 -85 25 -85 22 0 24 4 27 58 l3 57 68 3 c64 3 67
4 67 27 0 25 -1 25 -95 25 l-95 0 0 -85z"/>
<path d="M720 133 c0 -5 8 -18 18 -31 l17 -22 18 30 18 30 -35 0 c-20 0 -36
-3 -36 -7z"/>
<path d="M1990 95 c0 -25 0 -25 95 -25 95 0 95 0 95 25 0 25 0 25 -95 25 -95
0 -95 0 -95 -25z"/>
</g>
</svg>
